<svg width="10" height="7" viewBox="0 0 10 7" fill="none" xmlns="http://www.w3.org/2000/svg">
<path d="M8.77994 0.790626L1.21973 0.790625C1.14318 0.790839 1.06816 0.809637 1.00272 0.844997C0.93728 0.880356 0.883911 0.930937 0.848355 0.991296C0.8128 1.05166 0.796403 1.11951 0.800932 1.18755C0.805461 1.25558 0.830744 1.32124 0.874058 1.37743L4.65416 6.23944C4.81083 6.44102 5.188 6.44102 5.34508 6.23944L9.12519 1.37743C9.16895 1.32135 9.19461 1.25567 9.19938 1.18752C9.20416 1.11936 9.18787 1.05135 9.15228 0.990863C9.11669 0.930376 9.06317 0.87973 8.99752 0.844428C8.93188 0.809126 8.85663 0.790518 8.77994 0.790626Z" fill="black"/>
</svg>
